<svg xmlns="http://www.w3.org/2000/svg" xmlns:xlink="http://www.w3.org/1999/xlink" width="1640" zoomAndPan="magnify" viewBox="0 0 1230 693.000001" height="924" preserveAspectRatio="xMidYMid meet" version="1.0"><defs><clipPath id="55a9c3126f"><path d="M 70.085938 0 L 1078.132812 0 L 1078.132812 66 L 70.085938 66 Z M 70.085938 0 " clip-rule="nonzero"/></clipPath><clipPath id="c3a6b985e9"><path d="M 70.085938 65.167969 L 1078.132812 65.167969 L 1078.132812 691.40625 L 70.085938 691.40625 Z M 70.085938 65.167969 " clip-rule="nonzero"/></clipPath></defs><g clip-path="url(#55a9c3126f)"><path fill="#e3e3e3" d="M 1078.132812 28.496094 C 1078.132812 13.113281 1065.65625 0.632812 1050.277344 0.632812 L 97.941406 0.632812 C 82.5625 0.632812 70.085938 13.113281 70.085938 28.496094 L 70.085938 65.4375 L 1078.132812 65.4375 L 1078.132812 28.496094 " fill-opacity="1" fill-rule="nonzero"/></g><g clip-path="url(#c3a6b985e9)"><path fill="#ffffff" d="M 70.085938 65.4375 L 70.085938 663.542969 C 70.085938 678.929688 82.5625 691.40625 97.941406 691.40625 L 1050.277344 691.40625 C 1065.65625 691.40625 1078.132812 678.929688 1078.132812 663.542969 L 1078.132812 65.4375 L 70.085938 65.4375 " fill-opacity="1" fill-rule="nonzero"/></g><path fill="#eb3449" d="M 120.9375 33.035156 C 120.9375 37.832031 117.046875 41.730469 112.242188 41.730469 C 107.445312 41.730469 103.546875 37.832031 103.546875 33.035156 C 103.546875 28.230469 107.445312 24.335938 112.242188 24.335938 C 117.046875 24.335938 120.9375 28.230469 120.9375 33.035156 " fill-opacity="1" fill-rule="nonzero"/><path fill="#fdb202" d="M 155.4375 33.035156 C 155.4375 37.832031 151.542969 41.730469 146.746094 41.730469 C 141.941406 41.730469 138.050781 37.832031 138.050781 33.035156 C 138.050781 28.230469 141.941406 24.335938 146.746094 24.335938 C 151.542969 24.335938 155.4375 28.230469 155.4375 33.035156 " fill-opacity="1" fill-rule="nonzero"/><path fill="#1daa81" d="M 189.933594 33.035156 C 189.933594 37.832031 186.042969 41.730469 181.238281 41.730469 C 176.441406 41.730469 172.550781 37.832031 172.550781 33.035156 C 172.550781 28.230469 176.441406 24.335938 181.238281 24.335938 C 186.042969 24.335938 189.933594 28.230469 189.933594 33.035156 " fill-opacity="1" fill-rule="nonzero"/><path fill="#ffffff" d="M 1006.679688 47.875 L 329.203125 47.875 C 321.011719 47.875 314.363281 41.226562 314.363281 33.035156 C 314.363281 24.832031 321.011719 18.191406 329.203125 18.191406 L 1006.679688 18.191406 C 1014.875 18.191406 1021.515625 24.832031 1021.515625 33.035156 C 1021.515625 41.226562 1014.875 47.875 1006.679688 47.875 " fill-opacity="1" fill-rule="nonzero"/><path fill="#ffffff" d="M 281.257812 47.875 C 273.066406 47.875 266.417969 41.226562 266.417969 33.035156 C 266.417969 24.832031 273.066406 18.191406 281.257812 18.191406 C 289.453125 18.191406 296.09375 24.832031 296.09375 33.035156 C 296.09375 41.226562 289.453125 47.875 281.257812 47.875 " fill-opacity="1" fill-rule="nonzero"/><path fill="#ffffff" d="M 233.777344 47.875 C 225.585938 47.875 218.9375 41.226562 218.9375 33.035156 C 218.9375 24.832031 225.585938 18.191406 233.777344 18.191406 C 241.964844 18.191406 248.613281 24.832031 248.613281 33.035156 C 248.613281 41.226562 241.964844 47.875 233.777344 47.875 " fill-opacity="1" fill-rule="nonzero"/><path fill="#b5b5b5" d="M 240.375 32.027344 L 229.8125 32.027344 L 234.289062 28.015625 C 234.695312 27.644531 234.738281 27.007812 234.367188 26.597656 C 233.996094 26.179688 233.359375 26.148438 232.941406 26.519531 L 226.5 32.277344 C 226.285156 32.476562 226.160156 32.75 226.160156 33.035156 C 226.160156 33.320312 226.285156 33.59375 226.5 33.785156 L 232.941406 39.550781 C 233.128906 39.722656 233.375 39.800781 233.609375 39.800781 C 233.886719 39.800781 234.167969 39.691406 234.367188 39.472656 C 234.738281 39.054688 234.695312 38.414062 234.289062 38.046875 L 229.8125 34.042969 L 240.375 34.042969 C 240.933594 34.042969 241.382812 33.59375 241.382812 33.035156 C 241.382812 32.476562 240.933594 32.027344 240.375 32.027344 " fill-opacity="1" fill-rule="nonzero"/><path fill="#b5b5b5" d="M 282.089844 26.519531 C 281.671875 26.148438 281.035156 26.179688 280.664062 26.597656 C 280.296875 27.007812 280.335938 27.644531 280.746094 28.015625 L 285.21875 32.027344 L 274.65625 32.027344 C 274.097656 32.027344 273.648438 32.476562 273.648438 33.035156 C 273.648438 33.59375 274.097656 34.042969 274.65625 34.042969 L 285.21875 34.042969 L 280.746094 38.046875 C 280.335938 38.414062 280.296875 39.054688 280.664062 39.472656 C 280.871094 39.691406 281.144531 39.800781 281.421875 39.800781 C 281.65625 39.800781 281.902344 39.722656 282.089844 39.550781 L 288.53125 33.785156 C 288.746094 33.59375 288.871094 33.320312 288.871094 33.035156 C 288.871094 32.75 288.746094 32.476562 288.53125 32.277344 L 282.089844 26.519531 " fill-opacity="1" fill-rule="nonzero"/><path fill="#b5b5b5" d="M 999.109375 31.027344 C 999.109375 28.945312 1000.804688 27.253906 1002.882812 27.253906 C 1004.953125 27.253906 1006.648438 28.945312 1006.648438 31.027344 C 1006.648438 33.105469 1004.953125 34.792969 1002.882812 34.792969 C 1000.804688 34.792969 999.109375 33.105469 999.109375 31.027344 Z M 1011.71875 39.109375 L 1007.308594 34.695312 C 1008.144531 33.695312 1008.664062 32.429688 1008.664062 31.027344 C 1008.664062 27.835938 1006.070312 25.234375 1002.882812 25.234375 C 999.691406 25.234375 997.09375 27.835938 997.09375 31.027344 C 997.09375 34.214844 999.691406 36.808594 1002.882812 36.808594 C 1003.9375 36.808594 1004.914062 36.5 1005.765625 36.003906 L 1010.292969 40.535156 C 1010.480469 40.730469 1010.742188 40.824219 1011.003906 40.824219 C 1011.261719 40.824219 1011.523438 40.730469 1011.71875 40.535156 C 1012.113281 40.140625 1012.113281 39.503906 1011.71875 39.109375 " fill-opacity="1" fill-rule="nonzero"/><path fill="#ffffff" d="M 1043.574219 20.367188 C 1043.574219 22.023438 1042.234375 23.359375 1040.589844 23.359375 C 1038.9375 23.359375 1037.597656 22.023438 1037.597656 20.367188 C 1037.597656 18.710938 1038.9375 17.375 1040.589844 17.375 C 1042.234375 17.375 1043.574219 18.710938 1043.574219 20.367188 " fill-opacity="1" fill-rule="nonzero"/><path fill="#ffffff" d="M 1043.574219 33.035156 C 1043.574219 34.679688 1042.234375 36.027344 1040.589844 36.027344 C 1038.9375 36.027344 1037.597656 34.679688 1037.597656 33.035156 C 1037.597656 31.378906 1038.9375 30.042969 1040.589844 30.042969 C 1042.234375 30.042969 1043.574219 31.378906 1043.574219 33.035156 " fill-opacity="1" fill-rule="nonzero"/><path fill="#ffffff" d="M 1043.574219 45.703125 C 1043.574219 47.347656 1042.234375 48.6875 1040.589844 48.6875 C 1038.9375 48.6875 1037.597656 47.347656 1037.597656 45.703125 C 1037.597656 44.046875 1038.9375 42.707031 1040.589844 42.707031 C 1042.234375 42.707031 1043.574219 44.046875 1043.574219 45.703125 " fill-opacity="1" fill-rule="nonzero"/></svg>